<svg id="Group_1234" data-name="Group 1234" xmlns="http://www.w3.org/2000/svg" width="67.015" height="58.139" viewBox="0 0 67.015 58.139">
  <g id="Group_66" data-name="Group 66">
    <g id="Group_65" data-name="Group 65">
      <path id="Path_147" data-name="Path 147" d="M158.556,194.784c-6.726-3.412-13.155-5.25-19.248-5.442-30.472-.821-47.766,21.623-47.766,47.327,0,2.895.208,6.473.622,10.759l11.822-.005c-.222-2.732-.31-5.014-.342-6.848-.378-22.541,14.662-41.209,38.172-40.463a40.447,40.447,0,0,1,16.691,4.566Z" transform="translate(-91.541 -189.32)" fill="#252a30"/>
    </g>
    <path id="Path_148" data-name="Path 148" d="M147.62,264.316a29.306,29.306,0,0,1-.488-5.286c0-11.447,8.158-21.263,19.964-21.263a19.648,19.648,0,0,1,10.782,3.657l.053-11.067a29.57,29.57,0,0,0-12.243-3.41c-19.741-.533-30.946,14.008-30.946,30.661,0,1.816.125,4.044.375,6.7Z" transform="translate(-110.936 -206.205)" fill="#252a30"/>
    <path id="Path_149" data-name="Path 149" d="M199.269,269.433a11.724,11.724,0,0,0-7.506-3.015,9.064,9.064,0,0,0-9.5,9.447,12.033,12.033,0,0,0,2.082,6.189l14.931.017Z" transform="translate(-132.267 -223.931)" fill="#252a30"/>
  </g>
</svg>
