<svg xmlns="http://www.w3.org/2000/svg" width="72.959" height="35" viewBox="0 0 72.959 35">
  <g id="Group_26450" data-name="Group 26450" transform="translate(0 0)">
    <path id="Path_8416" data-name="Path 8416" d="M356,154.52h4.493c2.279,0,3.175,1.34,3.175,3.447,0,1.312-.394,3.383-3.318,3.383H358.5v4.759H356Zm2.494,5.06h1.39a1.433,1.433,0,0,0,1.254-1.548c0-.939-.265-1.741-1.39-1.741h-1.254Z" transform="translate(-356 -145.569)"/>
    <path id="Path_8417" data-name="Path 8417" d="M369.793,159.394v1.039h0a2.394,2.394,0,0,1,2.358-1.19,4.8,4.8,0,0,0-.2.975c-.107.717-.122,1-.122,1-2.049-.129-1.949,1.046-1.949,1.842v4.393H367.55v-8.062Z" transform="translate(-359.273 -146.943)"/>
    <path id="Path_8418" data-name="Path 8418" d="M425.97,166.128V154.54H427.5v10.305h4.092v1.283Z" transform="translate(-376.627 -145.575)" fill="#8a8a8d"/>
    <path id="Path_8419" data-name="Path 8419" d="M436.607,166.256h0a2.057,2.057,0,0,1-2.114,1.333c-1.777,0-2.293-1.111-2.293-2.666,0-2.458,2.494-2.573,4.4-2.523,0-1.075.05-2.25-1.433-2.25a1.218,1.218,0,0,0-1.311,1.433h-1.483c.072-1.813,1.061-2.444,2.866-2.444,2.15,0,2.723,1.075,2.723,2.444v3.906a12.418,12.418,0,0,0,.165,1.928h-1.5Zm-3.074-1.233a1.319,1.319,0,0,0,1.311,1.491c.831,0,1.863-.5,1.727-3.117-1.3,0-3.038-.093-3.038,1.62" transform="translate(-378.467 -146.919)" fill="#8a8a8d"/>
    <path id="Path_8420" data-name="Path 8420" d="M443.462,166.128H442.1V154.54h1.362v4.3h.05a2.15,2.15,0,0,1,1.842-.982c2.709,0,2.781,2.329,2.781,4.35,0,3.583-1.362,4.078-2.709,4.078a2.085,2.085,0,0,1-1.928-1.125h0Zm1.526-.91c1.713,0,1.713-1.77,1.713-2.988,0-2.15-.2-3.289-1.663-3.289s-1.577,1.734-1.577,2.809c0,1.233-.15,3.469,1.526,3.469" transform="translate(-381.538 -145.576)" fill="#8a8a8d"/>
    <path id="Path_8421" data-name="Path 8421" d="M454.2,167.6c-1.813,0-2.945-.767-2.867-2.63h1.548c0,.466,0,1.555,1.4,1.555.817,0,1.433-.4,1.433-1.24,0-1.433-4.192-1.476-4.192-3.9,0-.853.53-2.215,2.866-2.215,1.5,0,2.773.717,2.659,2.293h-1.512a1.161,1.161,0,0,0-1.311-1.3c-.717,0-1.3.387-1.3,1.089,0,1.433,4.192,1.433,4.192,3.87,0,1.785-1.261,2.472-2.924,2.472" transform="translate(-384.152 -146.928)" fill="#8a8a8d"/>
    <path id="Path_8422" data-name="Path 8422" d="M383.615,159.52h0a2.15,2.15,0,0,1,2.007-1.161,1.856,1.856,0,0,1,1.806,1.118,2.53,2.53,0,0,1,2.229-1.168,1.914,1.914,0,0,1,2.028,2.007c-.043,2.5,0,5.2.05,7.561h-2.329c-.115-2.05-.15-4.3-.107-6.514,0-.853-.093-1.5-.846-1.491s-.91.652-.932,1.5c-.05,2.15,0,4.436.129,6.5-.76,0-1.526-.122-2.286-.143-.122-2.078-.158-4.178-.115-6.335,0-.838-.086-1.476-.824-1.433s-.881.667-.9,1.484c0,2.15-.072,4.1,0,6.178-.774,0-1.483-.079-2.25-.129a53.5,53.5,0,0,1,0-8.772q1.154-.072,2.315-.122v.917" transform="translate(-363.421 -146.68)"/>
    <path id="Path_8423" data-name="Path 8423" d="M402.463,166.853h0a2.185,2.185,0,0,1-.86.846,2.508,2.508,0,0,1-1.147.287,1.87,1.87,0,0,1-2.107-1.885V158.59l2.343.079c0,2.007.043,4.235,0,6.378,0,.824.122,1.433.882,1.383s.9-.609.917-1.433c0-2.1,0-4.3-.057-6.256l2.351.143c.115,2.236.136,4.687.064,7v1.677l-2.429.15v-.874" transform="translate(-368.491 -146.764)"/>
    <path id="Path_8424" data-name="Path 8424" d="M411.719,164.8a2.566,2.566,0,0,0,.093,1.039c.122.265.365.38.824.344a.91.91,0,0,0,.86-.924c.036-1.727-3.992-1.268-4.063-4.221-.064-1.978,1.677-2.358,3.189-2.15s3.01,1.1,2.867,2.73l-2.193-.129a1.62,1.62,0,0,0-.251-1.089.846.846,0,0,0-.595-.229c-.509-.043-.774.272-.76.86.064,1.39,4.013,1.483,3.977,3.891,0,1.319-1.147,2.5-3.089,2.73s-3.347-.165-3.146-2.738l2.279-.086" transform="translate(-371.751 -146.833)"/>
    <path id="Path_8425" data-name="Path 8425" d="M384.6,177.7a18.189,18.189,0,0,1-4.5-3.082h0a17.615,17.615,0,0,0,6.041,4.816,18.1,18.1,0,0,0,23.928-7.568,16.663,16.663,0,0,0-.194-15.917h0a16.979,16.979,0,0,1-.824,14.068,18.267,18.267,0,0,1-16.232,9.625h0a18.631,18.631,0,0,1-8.205-1.9" transform="translate(-363.264 -146.298)"/>
    <path id="Path_8426" data-name="Path 8426" d="M384.814,147.182a15.113,15.113,0,0,1,15.415-1.276,14.125,14.125,0,0,1,8.048,12.85h0a14.6,14.6,0,0,0,.1-1.741,15.172,15.172,0,0,0-8.643-13.616,16.142,16.142,0,0,0-19.944,4.708Z" transform="translate(-363.142 -141.75)"/>
    <path id="Path_8427" data-name="Path 8427" d="M377.627,153.351a15.1,15.1,0,0,0-.817,1.892l3.017-.33a14.256,14.256,0,0,1,1.512-2.193Z" transform="translate(-362.131 -144.983)" fill="#010307"/>
    <path id="Path_8428" data-name="Path 8428" d="M375.907,159.244a14.636,14.636,0,0,0-.237,2.637,15.05,15.05,0,0,0,8.6,13.566h.05a16.533,16.533,0,0,0,6.249,1.62,27.348,27.348,0,0,1-4.766-1.433A13.839,13.839,0,0,1,378.494,159Z" transform="translate(-361.832 -147.162)"/>
    <path id="Path_8429" data-name="Path 8429" d="M401.548,145.9a15.475,15.475,0,0,1,5.919,12.076,15.061,15.061,0,0,1-1.8,7.112,16.73,16.73,0,0,1-14.827,8.64h0a17.283,17.283,0,0,1-7.5-1.7,15.691,15.691,0,0,1-9.108-14.082,15.046,15.046,0,0,1,1.8-7.112,15.84,15.84,0,0,1,1.29-2.028h0a16.447,16.447,0,0,0-1.8,2.7,15.691,15.691,0,0,0-1.878,7.421,16.381,16.381,0,0,0,9.51,14.7,18.032,18.032,0,0,0,7.819,1.781,17.463,17.463,0,0,0,15.479-9.006,15.7,15.7,0,0,0,1.842-7.421,16.191,16.191,0,0,0-6.786-13.069Z" transform="translate(-361.341 -142.926)" fill="#ffcf2b"/>
  </g>
</svg>
